<svg width="32" height="32" viewBox="0 0 32 32" fill="none" xmlns="http://www.w3.org/2000/svg">
<path d="M15.5039 0.00195312C11.2976 0.00195312 10.7687 0.0213281 9.11597 0.0949531C7.46328 0.172453 6.33759 0.432078 5.35141 0.815703C4.31696 1.20479 3.37998 1.81512 2.60597 2.60402C1.81755 3.37843 1.2073 4.31529 0.817656 5.34945C0.434031 6.3337 0.172469 7.46133 0.0969063 9.1082C0.0232813 10.7648 0.00390625 11.2918 0.00390625 15.5039C0.00390625 19.7121 0.0232813 20.2391 0.0969063 21.8918C0.174406 23.5426 0.434031 24.6683 0.817656 25.6545C1.21484 26.6736 1.74378 27.5377 2.60597 28.3999C3.46622 29.2621 4.33034 29.793 5.34947 30.1882C6.33759 30.5718 7.46134 30.8334 9.11209 30.909C10.7667 30.9826 11.2937 31.002 15.5039 31.002C19.7141 31.002 20.2392 30.9826 21.8938 30.909C23.5426 30.8315 24.6722 30.5718 25.6583 30.1882C26.6921 29.7989 27.6284 29.1886 28.4018 28.3999C29.264 27.5377 29.793 26.6736 30.1902 25.6545C30.5718 24.6683 30.8334 23.5426 30.9109 21.8918C30.9845 20.2391 31.0039 19.7121 31.0039 15.502C31.0039 11.2918 30.9845 10.7648 30.9109 9.11014C30.8334 7.46133 30.5718 6.3337 30.1902 5.34945C29.8006 4.31526 29.1903 3.37839 28.4018 2.60402C27.6281 1.81482 26.691 1.20445 25.6564 0.815703C24.6683 0.432078 23.5407 0.170516 21.8918 0.0949531C20.2372 0.0213281 19.7122 0.00195312 15.5 0.00195312H15.5058H15.5039ZM14.1147 2.79583H15.5058C19.6443 2.79583 20.1345 2.80939 21.7678 2.88495C23.2791 2.95277 24.1006 3.20658 24.647 3.41777C25.3697 3.6987 25.887 4.03583 26.4295 4.57833C26.972 5.12083 27.3072 5.6362 27.5881 6.36083C27.8012 6.90527 28.0531 7.72677 28.1209 9.23802C28.1965 10.8713 28.212 11.3615 28.212 15.4981C28.212 19.6346 28.1965 20.1268 28.1209 21.7601C28.0531 23.2713 27.7993 24.0909 27.5881 24.6373C27.3396 25.3103 26.943 25.9188 26.4275 26.4178C25.885 26.9603 25.3697 27.2955 24.645 27.5765C24.1025 27.7896 23.281 28.0415 21.7678 28.1112C20.1345 28.1848 19.6443 28.2023 15.5058 28.2023C11.3673 28.2023 10.8752 28.1848 9.24191 28.1112C7.73066 28.0415 6.91109 27.7896 6.36472 27.5765C5.69144 27.3283 5.08234 26.9324 4.58222 26.4178C4.06636 25.918 3.66912 25.3089 3.41972 24.6353C3.20853 24.0909 2.95472 23.2694 2.88691 21.7581C2.81328 20.1248 2.79778 19.6346 2.79778 15.4942C2.79778 11.3557 2.81328 10.8675 2.88691 9.23414C2.95666 7.72289 3.20853 6.90139 3.42166 6.35502C3.70259 5.63233 4.03972 5.11502 4.58222 4.57252C5.12472 4.03002 5.64009 3.69483 6.36472 3.41389C6.91109 3.20077 7.73066 2.94889 9.24191 2.87914C10.6718 2.81327 11.2259 2.79389 14.1147 2.79195V2.79583ZM23.779 5.36883C23.5347 5.36883 23.2928 5.41694 23.0672 5.51041C22.8415 5.60389 22.6365 5.74089 22.4638 5.91361C22.291 6.08633 22.154 6.29137 22.0606 6.51704C21.9671 6.7427 21.919 6.98457 21.919 7.22883C21.919 7.47309 21.9671 7.71495 22.0606 7.94062C22.154 8.16628 22.291 8.37133 22.4638 8.54405C22.6365 8.71676 22.8415 8.85377 23.0672 8.94724C23.2928 9.04072 23.5347 9.08883 23.779 9.08883C24.2723 9.08883 24.7454 8.89286 25.0942 8.54405C25.443 8.19523 25.639 7.72213 25.639 7.22883C25.639 6.73553 25.443 6.26243 25.0942 5.91361C24.7454 5.56479 24.2723 5.36883 23.779 5.36883ZM15.5058 7.5427C14.45 7.52623 13.4015 7.71996 12.4213 8.1126C11.4411 8.50525 10.5488 9.08897 9.79632 9.82977C9.04387 10.5706 8.4463 11.4537 8.03841 12.4276C7.63052 13.4016 7.42046 14.447 7.42046 15.5029C7.42046 16.5589 7.63052 17.6042 8.03841 18.5782C8.4463 19.5522 9.04387 20.4353 9.79632 21.1761C10.5488 21.9169 11.4411 22.5006 12.4213 22.8932C13.4015 23.2859 14.45 23.4796 15.5058 23.4631C17.5955 23.4305 19.5886 22.5775 21.0548 21.0883C22.521 19.599 23.3428 17.5928 23.3428 15.5029C23.3428 13.413 22.521 11.4069 21.0548 9.91759C19.5886 8.42831 17.5955 7.57531 15.5058 7.5427ZM15.5058 10.3346C16.8763 10.3346 18.1906 10.8791 19.1597 11.8481C20.1287 12.8172 20.6732 14.1315 20.6732 15.502C20.6732 16.8724 20.1287 18.1867 19.1597 19.1558C18.1906 20.1249 16.8763 20.6693 15.5058 20.6693C14.1354 20.6693 12.8211 20.1249 11.852 19.1558C10.8829 18.1867 10.3385 16.8724 10.3385 15.502C10.3385 14.1315 10.8829 12.8172 11.852 11.8481C12.8211 10.8791 14.1354 10.3346 15.5058 10.3346Z" fill="white"/>
</svg>
