<?xml version="1.0" encoding="utf-8"?>
<!-- Generator: Adobe Illustrator 25.0.0, SVG Export Plug-In . SVG Version: 6.00 Build 0)  -->
<svg version="1.1" id="Capa_1" xmlns="http://www.w3.org/2000/svg" xmlns:xlink="http://www.w3.org/1999/xlink" x="0px" y="0px"
	 viewBox="0 0 138 49" style="enable-background:new 0 0 138 49;" xml:space="preserve">
<style type="text/css">
	.st0{fill:#FFFFFF;}
</style>
<path class="st0" d="M16,20.3c4.9,4.7,8.4,8.2,10.4,10.6c1.1,1.2,1.6,2.2,1.6,3c0,0.8-0.6,1.8-1.9,2.9c-1.3,1.1-2.3,1.6-3.2,1.6
	c-0.8,0-1.8-0.7-2.9-2l-10.6-12v9.4c0,0.8,0,1.3-0.1,1.7c0,0.4-0.2,0.8-0.4,1.2C8.4,37.6,7.2,38,5.1,38c-2.2,0-3.6-0.6-3.9-1.8
	c-0.2-0.5-0.3-1.3-0.3-2.4V7c0-0.7,0-1.3,0-1.6C1,5,1.2,4.6,1.4,4.1c0.4-0.9,1.7-1.3,3.7-1.3c2.2,0,3.6,0.6,4,1.8
	C9.3,5.1,9.4,6,9.4,7.1v9.2c4.4-4.9,7.9-8.9,10.6-12c1.1-1.3,2.1-2,2.9-2c0.8,0,1.9,0.6,3.2,1.7C27.4,5,28,6,28,6.8
	c0,0.8-0.5,1.8-1.4,2.9c-1.9,2.1-4.7,5.1-8.6,8.8L16,20.3z M30.4,16.9c0-0.7,0-1.3,0-1.6c0.1-0.4,0.2-0.8,0.4-1.3
	c0.4-0.8,1.7-1.2,3.7-1.2c1.5,0,2.6,0.3,3.3,0.8c0.5,0.4,0.8,1.1,0.9,2.1c0,0.3,0,0.8,0,1.4v16.8c0,0.7,0,1.3-0.1,1.7
	c0,0.4-0.2,0.8-0.4,1.2c-0.4,0.8-1.6,1.2-3.7,1.2c-2,0-3.2-0.4-3.7-1.3c-0.2-0.5-0.4-0.9-0.4-1.2c0-0.4,0-0.9,0-1.7V16.9z M38.2,8
	C38,8.5,37.6,8.8,37,9c-0.6,0.2-1.4,0.3-2.4,0.3c-1,0-1.8-0.1-2.4-0.3c-0.6-0.2-1-0.5-1.3-1c-0.2-0.5-0.4-0.9-0.4-1.2
	c0-0.4,0-0.9,0-1.7s0-1.3,0-1.6c0.1-0.4,0.2-0.8,0.4-1.2c0.4-0.9,1.7-1.3,3.7-1.3c2,0,3.2,0.4,3.6,1.3c0.3,0.5,0.4,0.9,0.4,1.3
	c0.1,0.4,0.1,0.9,0.1,1.6s0,1.3-0.1,1.7C38.6,7.2,38.5,7.6,38.2,8z M42.6,44.9v-28c0-0.7,0-1.3,0-1.6c0.1-0.4,0.2-0.8,0.4-1.2
	c0.4-0.9,1.5-1.3,3.2-1.3s2.8,0.2,3.4,0.7c0.6,0.4,1,1,1.1,1.9c1.2-1.7,3.1-2.5,5.7-2.5c2.6,0,5.1,1.2,7.4,3.7s3.5,5.3,3.5,8.6
	s-1.2,6.1-3.5,8.6c-2.3,2.5-4.8,3.7-7.4,3.7c-2.6,0-4.5-0.7-5.7-2.2v9.7c0,0.7,0,1.3-0.1,1.6c0,0.4-0.2,0.8-0.4,1.2
	c-0.2,0.5-0.6,0.8-1.2,1c-0.6,0.2-1.4,0.3-2.4,0.3c-1,0-1.8-0.1-2.4-0.3c-0.6-0.2-1-0.5-1.2-1c-0.2-0.4-0.4-0.8-0.4-1.2
	C42.6,46.1,42.6,45.6,42.6,44.9z M52.1,22.3c-0.7,0.9-1.1,1.8-1.1,2.8s0.4,2,1.1,2.8c0.8,0.8,1.7,1.2,2.9,1.2c1.2,0,2.2-0.4,3-1.2
	c0.8-0.8,1.2-1.8,1.2-2.8s-0.4-2-1.2-2.8c-0.8-0.9-1.8-1.3-3-1.3C53.8,21,52.8,21.4,52.1,22.3z M81.8,37.9c-3.2,0-5.9-1.2-8.1-3.6
	c-2.1-2.5-3.2-5.5-3.2-9v-8.4c0-0.8,0-1.3,0-1.7c0.1-0.4,0.2-0.8,0.4-1.2c0.4-0.9,1.7-1.3,3.7-1.3c2.2,0,3.6,0.6,3.9,1.8
	c0.2,0.5,0.3,1.3,0.3,2.4v8.4c0,1.3,0.4,2.3,1.1,3.1c0.8,0.7,1.8,1.1,3,1.1c1.3,0,2.3-0.4,3.1-1.2c0.8-0.8,1.2-1.8,1.2-3v-8.5
	c0-0.7,0-1.3,0-1.6c0.1-0.4,0.2-0.8,0.5-1.3c0.4-0.8,1.6-1.2,3.7-1.2c2,0,3.2,0.4,3.7,1.3c0.2,0.5,0.4,0.9,0.4,1.3
	c0.1,0.4,0.1,0.9,0.1,1.6v17c0,0.7,0,1.2-0.1,1.6c0,0.4-0.2,0.8-0.4,1.2c-0.5,0.8-1.7,1.2-3.7,1.2c-2,0-3.2-0.4-3.6-1.2
	c-0.3-0.5-0.5-1.2-0.5-2c-0.1,0.2-0.4,0.5-0.9,1c-0.4,0.4-0.9,0.8-1.3,1.1C84.2,37.6,83,37.9,81.8,37.9z M113.7,12.8
	c3.2,0,5.9,1.2,8,3.6c2.1,2.4,3.2,5.4,3.2,8.9v8.4c0,0.7,0,1.3-0.1,1.7c0,0.4-0.2,0.8-0.4,1.2c-0.4,0.8-1.6,1.2-3.7,1.2
	c-2,0-3.2-0.4-3.6-1.2c-0.3-0.5-0.4-0.9-0.5-1.3c0-0.4,0-1,0-1.7v-8.4c0-1.3-0.4-2.3-1.1-3.1s-1.7-1.1-2.8-1.1c-1.1,0-2.1,0.4-3,1.1
	c-0.9,0.7-1.4,1.4-1.5,2.3v9.3c0,0.7,0,1.3-0.1,1.7c0,0.4-0.2,0.8-0.4,1.2c-0.4,0.8-1.6,1.2-3.7,1.2c-2,0-3.2-0.4-3.7-1.3
	c-0.2-0.5-0.4-0.9-0.4-1.2c0-0.4,0-0.9,0-1.7V5.1c0-0.7,0-1.3,0-1.6c0.1-0.4,0.2-0.8,0.4-1.2c0.4-0.9,1.7-1.3,3.7-1.3
	c2,0,3.2,0.4,3.6,1.3c0.3,0.5,0.4,0.9,0.4,1.3c0.1,0.4,0.1,0.9,0.1,1.6v10.6C109.6,13.8,111.5,12.8,113.7,12.8z M129.2,30.7
	c0.3-0.6,0.8-1.1,1.4-1.3c0.7-0.2,1.7-0.3,3.1-0.3c1.4,0,2.4,0.3,3,0.9c0.6,0.6,1,1.6,1,2.9v0.8c0,0.8,0,1.3-0.1,1.7
	c0,0.4-0.2,0.8-0.4,1.3c-0.5,0.9-1.7,1.4-3.7,1.4c-1.9,0-3.2-0.3-3.8-0.9c-0.6-0.6-0.9-1.9-0.9-3.6
	C128.7,32.2,128.9,31.3,129.2,30.7z M135.6,25.1c-0.6,0.2-1.4,0.2-2.4,0.2c-1,0-1.8-0.1-2.4-0.2s-1-0.4-1.3-0.9
	c-0.2-0.4-0.4-0.8-0.4-1.1c0-0.3,0-0.8,0-1.5V6.4c0-0.7,0-1.2,0-1.5c0.1-0.4,0.2-0.7,0.5-1.2c0.3-0.4,0.7-0.7,1.3-0.9
	c0.6-0.2,1.4-0.3,2.4-0.3s1.8,0.1,2.4,0.3c0.6,0.2,1,0.5,1.2,0.9c0.3,0.4,0.4,0.8,0.4,1.2c0.1,0.3,0.1,0.8,0.1,1.5v15.2
	c0,0.7,0,1.2-0.1,1.5c0,0.3-0.2,0.7-0.4,1.1C136.7,24.7,136.2,24.9,135.6,25.1z"/>
</svg>
