<svg width="138" height="49" viewBox="0 0 138 49" fill="none" xmlns="http://www.w3.org/2000/svg">
<path d="M15.992 20.336C20.888 25.04 24.36 28.576 26.408 30.944C27.464 32.128 27.992 33.136 27.992 33.968C27.992 34.768 27.352 35.728 26.072 36.848C24.792 37.936 23.736 38.48 22.904 38.48C22.104 38.48 21.128 37.808 19.976 36.464L9.416 24.416V33.776C9.416 34.544 9.384 35.104 9.32 35.456C9.288 35.808 9.144 36.224 8.888 36.704C8.44 37.568 7.192 38 5.144 38C2.904 38 1.592 37.392 1.208 36.176C1.016 35.664 0.92 34.848 0.92 33.728V7.04C0.92 6.304 0.936 5.76 0.968 5.408C1.032 5.024 1.192 4.592 1.448 4.112C1.896 3.248 3.144 2.816 5.192 2.816C7.432 2.816 8.76 3.408 9.176 4.592C9.336 5.136 9.416 5.968 9.416 7.088V16.256C13.768 11.36 17.288 7.344 19.976 4.208C21.096 2.896 22.072 2.24 22.904 2.24C23.736 2.24 24.792 2.8 26.072 3.92C27.352 5.008 27.992 5.968 27.992 6.8C27.992 7.6 27.512 8.56 26.552 9.68C24.696 11.824 21.816 14.768 17.912 18.512L15.992 20.336ZM30.3575 16.928C30.3575 16.192 30.3735 15.648 30.4055 15.296C30.4695 14.912 30.6135 14.48 30.8375 14C31.2855 13.168 32.5335 12.752 34.5815 12.752C36.1175 12.752 37.2055 13.024 37.8455 13.568C38.3895 14.016 38.6775 14.704 38.7095 15.632C38.7415 15.952 38.7575 16.416 38.7575 17.024V33.824C38.7575 34.56 38.7255 35.12 38.6615 35.504C38.6295 35.856 38.4855 36.272 38.2295 36.752C37.8135 37.584 36.5815 38 34.5335 38C32.5175 38 31.2855 37.568 30.8375 36.704C30.6135 36.224 30.4695 35.808 30.4055 35.456C30.3735 35.104 30.3575 34.544 30.3575 33.776V16.928ZM38.2295 8.048C38.0055 8.496 37.5895 8.816 36.9815 9.008C36.3735 9.2 35.5575 9.296 34.5335 9.296C33.5415 9.296 32.7415 9.2 32.1335 9.008C31.5255 8.816 31.0935 8.48 30.8375 8C30.6135 7.52 30.4695 7.104 30.4055 6.752C30.3735 6.368 30.3575 5.808 30.3575 5.072C30.3575 4.336 30.3735 3.792 30.4055 3.44C30.4695 3.056 30.6135 2.64 30.8375 2.192C31.2855 1.328 32.5335 0.895997 34.5815 0.895997C36.5975 0.895997 37.8135 1.328 38.2295 2.192C38.4855 2.672 38.6295 3.104 38.6615 3.488C38.7255 3.84 38.7575 4.384 38.7575 5.12C38.7575 5.856 38.7255 6.416 38.6615 6.8C38.6295 7.152 38.4855 7.568 38.2295 8.048ZM42.5919 44.864V16.832C42.5919 16.096 42.6079 15.552 42.6399 15.2C42.7039 14.848 42.8479 14.448 43.0719 14C43.5199 13.136 44.5919 12.704 46.2879 12.704C47.9839 12.704 49.1199 12.928 49.6959 13.376C50.3039 13.792 50.6559 14.416 50.7519 15.248C51.9679 13.584 53.8719 12.752 56.4639 12.752C59.0879 12.752 61.5679 13.984 63.9039 16.448C66.2399 18.912 67.4079 21.776 67.4079 25.04C67.4079 28.304 66.2399 31.168 63.9039 33.632C61.5999 36.096 59.1359 37.328 56.5119 37.328C53.8879 37.328 51.9839 36.592 50.7999 35.12V44.816C50.7999 45.552 50.7679 46.096 50.7039 46.448C50.6719 46.8 50.5279 47.2 50.2719 47.648C50.0479 48.128 49.6479 48.464 49.0719 48.656C48.4959 48.848 47.7119 48.944 46.7199 48.944C45.7279 48.944 44.9279 48.848 44.3199 48.656C43.7439 48.464 43.3279 48.144 43.0719 47.696C42.8479 47.248 42.7039 46.848 42.6399 46.496C42.6079 46.144 42.5919 45.6 42.5919 44.864ZM52.0959 22.256C51.3599 23.12 50.9919 24.064 50.9919 25.088C50.9919 26.112 51.3599 27.056 52.0959 27.92C52.8639 28.752 53.8239 29.168 54.9759 29.168C56.1599 29.168 57.1519 28.752 57.9519 27.92C58.7839 27.088 59.1999 26.144 59.1999 25.088C59.1999 24.032 58.8159 23.088 58.0479 22.256C57.2799 21.392 56.2719 20.96 55.0239 20.96C53.8079 20.96 52.8319 21.392 52.0959 22.256ZM81.7614 37.904C78.5294 37.904 75.8414 36.688 73.6974 34.256C71.5854 31.792 70.5294 28.8 70.5294 25.28V16.88C70.5294 16.112 70.5454 15.552 70.5774 15.2C70.6414 14.848 70.7854 14.432 71.0094 13.952C71.4574 13.088 72.7054 12.656 74.7534 12.656C76.9934 12.656 78.3054 13.264 78.6894 14.48C78.8814 14.992 78.9774 15.808 78.9774 16.928V25.328C78.9774 26.64 79.3454 27.664 80.0814 28.4C80.8494 29.136 81.8574 29.504 83.1054 29.504C84.3854 29.504 85.4094 29.12 86.1774 28.352C86.9774 27.584 87.3774 26.576 87.3774 25.328V16.832C87.3774 16.096 87.3934 15.552 87.4254 15.2C87.4894 14.816 87.6494 14.384 87.9054 13.904C88.3214 13.072 89.5534 12.656 91.6014 12.656C93.6174 12.656 94.8494 13.088 95.2974 13.952C95.5214 14.432 95.6494 14.864 95.6814 15.248C95.7454 15.6 95.7774 16.144 95.7774 16.88V33.872C95.7774 34.576 95.7454 35.12 95.6814 35.504C95.6494 35.856 95.5054 36.256 95.2494 36.704C94.7694 37.536 93.5374 37.952 91.5534 37.952C89.6014 37.952 88.4014 37.568 87.9534 36.8C87.6334 36.256 87.4734 35.6 87.4734 34.832C87.3454 35.056 87.0574 35.376 86.6094 35.792C86.1614 36.208 85.7294 36.56 85.3134 36.848C84.2254 37.552 83.0414 37.904 81.7614 37.904ZM113.655 12.8C116.855 12.8 119.511 14.016 121.623 16.448C123.767 18.88 124.839 21.856 124.839 25.376V33.824C124.839 34.56 124.807 35.12 124.743 35.504C124.711 35.856 124.567 36.272 124.311 36.752C123.895 37.584 122.663 38 120.615 38C118.663 38 117.447 37.584 116.967 36.752C116.711 36.272 116.551 35.84 116.487 35.456C116.455 35.072 116.439 34.496 116.439 33.728V25.328C116.439 24.016 116.071 22.992 115.335 22.256C114.599 21.52 113.655 21.152 112.503 21.152C111.383 21.152 110.391 21.504 109.527 22.208C108.663 22.88 108.167 23.648 108.039 24.512V33.824C108.039 34.56 108.007 35.12 107.943 35.504C107.911 35.856 107.767 36.272 107.511 36.752C107.095 37.584 105.863 38 103.815 38C101.799 38 100.567 37.568 100.119 36.704C99.8948 36.224 99.7508 35.808 99.6868 35.456C99.6548 35.104 99.6388 34.544 99.6388 33.776V5.072C99.6388 4.336 99.6548 3.792 99.6868 3.44C99.7508 3.056 99.8948 2.64 100.119 2.192C100.567 1.328 101.815 0.895997 103.863 0.895997C105.879 0.895997 107.095 1.328 107.511 2.192C107.767 2.672 107.911 3.104 107.943 3.488C108.007 3.84 108.039 4.384 108.039 5.12V15.728C109.639 13.776 111.511 12.8 113.655 12.8ZM129.181 30.704C129.501 30.064 129.981 29.632 130.621 29.408C131.293 29.184 132.317 29.072 133.693 29.072C135.101 29.072 136.109 29.376 136.717 29.984C137.357 30.592 137.677 31.552 137.677 32.864V33.632C137.677 34.4 137.645 34.976 137.581 35.36C137.549 35.712 137.405 36.144 137.149 36.656C136.637 37.584 135.405 38.048 133.453 38.048C131.533 38.048 130.253 37.744 129.613 37.136C129.005 36.496 128.701 35.28 128.701 33.488C128.701 32.24 128.861 31.312 129.181 30.704ZM135.613 25.088C135.005 25.248 134.189 25.328 133.165 25.328C132.141 25.328 131.325 25.248 130.717 25.088C130.109 24.928 129.677 24.64 129.421 24.224C129.197 23.808 129.053 23.44 128.989 23.12C128.957 22.8 128.941 22.304 128.941 21.632V6.416C128.941 5.744 128.957 5.248 128.989 4.928C129.053 4.576 129.213 4.192 129.469 3.776C129.725 3.36 130.157 3.072 130.765 2.912C131.373 2.72 132.189 2.624 133.213 2.624C134.237 2.624 135.053 2.72 135.661 2.912C136.269 3.072 136.685 3.376 136.909 3.824C137.165 4.24 137.309 4.624 137.341 4.976C137.405 5.296 137.437 5.792 137.437 6.464V21.68C137.437 22.352 137.405 22.848 137.341 23.168C137.309 23.488 137.165 23.856 136.909 24.272C136.653 24.656 136.221 24.928 135.613 25.088Z" fill="black"/>
</svg>
