<svg width="32" height="32" viewBox="0 0 32 32" fill="none" xmlns="http://www.w3.org/2000/svg">
<path d="M0.00390625 2.22233C0.00390625 0.995891 1.02303 0.00195312 2.28047 0.00195312H28.7273C29.9848 0.00195312 31.0039 0.995891 31.0039 2.22233V28.7816C31.0039 30.008 29.9848 31.002 28.7273 31.002H2.28047C1.02303 31.002 0.00390625 30.008 0.00390625 28.7816V2.22233ZM9.58097 25.9528V11.9544H4.92903V25.9528H9.58097ZM7.25597 10.0421C8.87766 10.0421 9.88709 8.9687 9.88709 7.62408C9.85803 6.25039 8.87959 5.20608 7.28697 5.20608C5.69434 5.20608 4.65391 6.25233 4.65391 7.62408C4.65391 8.9687 5.66334 10.0421 7.22497 10.0421H7.25597ZM16.7652 25.9528V18.135C16.7652 17.7165 16.7962 17.298 16.9202 16.9996C17.2554 16.1646 18.0207 15.2985 19.3072 15.2985C20.9909 15.2985 21.6632 16.5811 21.6632 18.4644V25.9528H26.3152V17.9238C26.3152 13.6226 24.0212 11.6231 20.9599 11.6231C18.4915 11.6231 17.3852 12.9793 16.7652 13.9345V13.983H16.7342C16.7445 13.9668 16.7548 13.9506 16.7652 13.9345V11.9544H12.1152C12.1733 13.268 12.1152 25.9528 12.1152 25.9528H16.7652Z" fill="white"/>
</svg>
