<svg width="32" height="27" viewBox="0 0 32 27" fill="none" xmlns="http://www.w3.org/2000/svg">
<path d="M9.74178 26.0645C21.4404 26.0645 27.84 16.3711 27.84 7.97983C27.84 7.70858 27.84 7.43345 27.8283 7.1622C29.0743 6.26027 30.1496 5.14362 31.0039 3.86458C29.8401 4.37773 28.6068 4.71593 27.344 4.8682C28.6741 4.07313 29.6704 2.82214 30.1475 1.34777C28.8978 2.08813 27.53 2.60786 26.104 2.8842C25.1453 1.86319 23.8766 1.18679 22.4946 0.959796C21.1125 0.732798 19.6942 0.967864 18.4592 1.62858C17.2243 2.2893 16.2417 3.3388 15.6637 4.61451C15.0856 5.89022 14.9443 7.32095 15.2617 8.68508C12.7328 8.55827 10.2587 7.9013 8.00005 6.75677C5.74137 5.61224 3.74848 4.00571 2.15066 2.04139C1.3395 3.44236 1.09196 5.09954 1.45828 6.67641C1.82461 8.25327 2.77735 9.63161 4.12303 10.5315C3.11464 10.4973 2.12842 10.2265 1.24391 9.74101V9.8282C1.24565 11.2958 1.75406 12.7178 2.68322 13.8539C3.61238 14.9899 4.90529 15.7703 6.34341 16.0631C5.79754 16.2135 5.23366 16.2884 4.66747 16.2859C4.26831 16.2871 3.86996 16.2501 3.47784 16.1755C3.88431 17.4388 4.67575 18.5434 5.74132 19.3345C6.8069 20.1256 8.09323 20.5636 9.42016 20.5871C7.16598 22.3576 4.3815 23.3179 1.51516 23.3132C1.01009 23.3153 0.505376 23.2862 0.00390625 23.226C2.91309 25.0807 6.29167 26.0655 9.74178 26.0645Z" fill="white"/>
</svg>
