<svg width="59" height="37" viewBox="0 0 59 37" fill="none" xmlns="http://www.w3.org/2000/svg">
<path d="M5.53125 0C4.06427 0 2.65738 0.584731 1.62007 1.62556C0.582755 2.66638 0 4.07805 0 5.55L0 11.1C0 11.5907 0.194252 12.0612 0.540022 12.4081C0.885792 12.7551 1.35476 12.95 1.84375 12.95C3.31073 12.95 4.71762 13.5347 5.75493 14.5756C6.79224 15.6164 7.375 17.028 7.375 18.5C7.375 19.972 6.79224 21.3836 5.75493 22.4244C4.71762 23.4653 3.31073 24.05 1.84375 24.05C1.35476 24.05 0.885792 24.2449 0.540022 24.5919C0.194252 24.9388 0 25.4093 0 25.9L0 31.45C0 32.922 0.582755 34.3336 1.62007 35.3744C2.65738 36.4153 4.06427 37 5.53125 37H53.4688C54.9357 37 56.3426 36.4153 57.3799 35.3744C58.4172 34.3336 59 32.922 59 31.45V25.9C59 25.4093 58.8057 24.9388 58.46 24.5919C58.1142 24.2449 57.6452 24.05 57.1562 24.05C55.6893 24.05 54.2824 23.4653 53.2451 22.4244C52.2078 21.3836 51.625 19.972 51.625 18.5C51.625 17.028 52.2078 15.6164 53.2451 14.5756C54.2824 13.5347 55.6893 12.95 57.1562 12.95C57.6452 12.95 58.1142 12.7551 58.46 12.4081C58.8057 12.0612 59 11.5907 59 11.1V5.55C59 4.07805 58.4172 2.66638 57.3799 1.62556C56.3426 0.584731 54.9357 0 53.4688 0H5.53125Z" fill="#FFC700"/>
<path d="M27.969 14.448C28.5983 14.7573 28.913 15.0987 28.913 15.472C28.913 15.6427 28.833 15.8987 28.673 16.24L24.257 25.2C24.1397 25.4347 23.9583 25.6267 23.713 25.776C23.4783 25.9147 23.233 25.984 22.977 25.984H22.817C22.5503 25.984 22.2943 25.9147 22.049 25.776C21.8143 25.6267 21.6383 25.4347 21.521 25.2L17.105 16.24C16.945 15.8987 16.865 15.6427 16.865 15.472C16.865 15.0987 17.1797 14.7573 17.809 14.448C18.161 14.2667 18.4277 14.176 18.609 14.176C18.801 14.176 18.945 14.1973 19.041 14.24C19.137 14.2827 19.2277 14.3573 19.313 14.464C19.409 14.592 19.4943 14.736 19.569 14.896C19.6543 15.0453 19.8623 15.488 20.193 16.224C20.5237 16.9493 20.8757 17.7227 21.249 18.544C21.633 19.3653 21.9903 20.144 22.321 20.88C22.6623 21.6053 22.8543 22.0107 22.897 22.096L26.097 15.088C26.1823 14.8853 26.257 14.7253 26.321 14.608C26.513 14.32 26.7477 14.176 27.025 14.176C27.3023 14.176 27.617 14.2667 27.969 14.448ZM29.7963 15.68C29.7963 15.4347 29.8016 15.2533 29.8123 15.136C29.8336 15.008 29.8869 14.864 29.9723 14.704C30.1216 14.416 30.5376 14.272 31.2203 14.272C31.9669 14.272 32.4096 14.4693 32.5483 14.864C32.6016 15.0453 32.6283 15.3227 32.6283 15.696V24.592C32.6283 24.848 32.6176 25.0347 32.5963 25.152C32.5856 25.2693 32.5376 25.408 32.4523 25.568C32.3029 25.856 31.8869 26 31.2043 26C30.4576 26 30.0203 25.7973 29.8923 25.392C29.8283 25.2213 29.7963 24.9493 29.7963 24.576V15.68ZM42.5616 16.64C42.839 17.2053 42.9776 17.8347 42.9776 18.528C42.9776 19.2213 42.839 19.8507 42.5616 20.416C42.2843 20.9707 41.927 21.4133 41.4896 21.744C40.6043 22.4267 39.687 22.768 38.7376 22.768H36.7376V24.576C36.7376 24.8213 36.727 25.008 36.7056 25.136C36.695 25.2533 36.647 25.392 36.5616 25.552C36.4123 25.84 35.9963 25.984 35.3136 25.984C34.567 25.984 34.1296 25.7867 34.0016 25.392C33.9376 25.2107 33.9056 24.9333 33.9056 24.56V15.68C33.9056 15.4347 33.911 15.2533 33.9216 15.136C33.943 15.008 33.9963 14.864 34.0816 14.704C34.231 14.416 34.647 14.272 35.3296 14.272H38.7536C39.6923 14.272 40.6043 14.6133 41.4896 15.296C41.927 15.6267 42.2843 16.0747 42.5616 16.64ZM38.7536 19.936C39.0736 19.936 39.3883 19.8187 39.6976 19.584C40.007 19.3493 40.1616 18.9973 40.1616 18.528C40.1616 18.0587 40.007 17.7067 39.6976 17.472C39.3883 17.2267 39.0683 17.104 38.7376 17.104H36.7376V19.936H38.7536Z" fill="black"/>
</svg>
